<svg id="Layer_1" enable-background="new 0 0 512 512" height="512" viewBox="0 0 512 512" width="512" xmlns="http://www.w3.org/2000/svg"><g><path d="m512 200c0 13.23-10.77 24-24 24h-16c-13.23 0-24-10.77-24-24 0-26.47-21.53-48-48-48h-284.69l20.69 20.69c6.24 6.23 6.24 16.39 0 22.62l-20.69 20.69c-6.23 6.24-16.39 6.24-22.62 0l-90.35-90.34c-3.12-3.13-3.12-8.19 0-11.32l90.35-90.34c6.23-6.24 16.39-6.24 22.62 0l20.69 20.69c6.24 6.23 6.24 16.39 0 22.62l-20.69 20.69h284.69c61.76 0 112 50.24 112 112z" fill="#c8effd"/><g fill="#a0e1fd"><path d="m104 44.69c6.24 6.23 6.24 16.39 0 22.62l-20.69 20.69h32l20.69-20.69c6.24-6.23 6.24-16.39 0-22.62l-20.69-20.69c-6.23-6.24-16.39-6.24-22.62 0l-4.69 4.689z"/><path d="m115.31 152h-32l20.69 20.69c6.24 6.23 6.24 16.39 0 22.62l-16 16 4.69 4.69c6.23 6.24 16.39 6.24 22.62 0l20.69-20.69c6.24-6.23 6.24-16.39 0-22.62z"/><path d="m400 88h-32c61.76 0 112 50.24 112 112 0 10.426-6.69 19.319-16 22.623 5.146 1.826 7.889 1.377 24 1.377 13.23 0 24-10.77 24-24 0-61.76-50.24-112-112-112z"/></g><path d="m509.66 397.66-90.35 90.34c-6.241 6.241-16.38 6.24-22.62 0l-20.69-20.69c-6.252-6.252-6.262-16.358 0-22.62l20.69-20.69h-284.69c-61.76 0-112-50.24-112-112 0-13.23 10.77-24 24-24h16c13.23 0 24 10.77 24 24 0 26.47 21.53 48 48 48h284.69l-20.69-20.69c-6.252-6.252-6.262-16.358 0-22.62l20.69-20.69c6.24-6.24 16.39-6.24 22.62 0l90.35 90.34c3.12 3.13 3.12 8.19 0 11.32z" fill="#7acef9"/><path d="m32 312c0 26.47 21.53 48 48 48h32c-26.47 0-48-21.53-48-48 0-13.23-10.77-24-24-24-16.549 0-18.922-.425-24 1.377 9.31 3.303 16 12.197 16 22.623z" fill="#6cb9e7"/><path d="m509.66 386.34-90.35-90.34c-6.23-6.24-16.38-6.24-22.62 0l-4.69 4.69 85.66 85.65c3.12 3.13 3.12 8.19 0 11.32l-85.66 85.65c4.975 4.975 8.332 9.37 16 9.37 4.1 0 8.19-1.56 11.31-4.68l90.35-90.34c3.12-3.13 3.12-8.19 0-11.32z" fill="#6cb9e7"/></g></svg>